PathFileType	4	(X/Y/Z)	T1_P2_NoVision_Movement_3_0-732.trc
DataRate	CameraRate	NumFrames	NumMarkers	Units	OrigDataRate	OrigDataStartFrame	OrigNumFrames
60	60	4	27	m	60	640	732
Frame#	Time	RHip			RKnee			RAnkle			RBigToe			RSmallToe			RHeel			LHip			LKnee			LAnkle			LBigToe			LSmallToe			LHeel			Neck			Head			Nose			RShoulder			RElbow			RWrist			RThumb			RIndex			RPinky			LShoulder			LElbow			LWrist			LThumb			LIndex			LPinky		
		X1	Y1	Z1	X2	Y2	Z2	X3	Y3	Z3	X4	Y4	Z4	X5	Y5	Z5	X6	Y6	Z6	X7	Y7	Z7	X8	Y8	Z8	X9	Y9	Z9	X10	Y10	Z10	X11	Y11	Z11	X12	Y12	Z12	X13	Y13	Z13	X14	Y14	Z14	X15	Y15	Z15	X16	Y16	Z16	X17	Y17	Z17	X18	Y18	Z18	X19	Y19	Z19	X20	Y20	Z20	X21	Y21	Z21	X22	Y22	Z22	X23	Y23	Z23	X24	Y24	Z24	X25	Y25	Z25	X26	Y26	Z26	X27	Y27	Z27
641	10.683333333333334	459.6016179530791	3632.7974519317463	547.3884612580766	850.5112125443343	3685.279843837475	561.019042032058	1233.7245628287924	3730.0630855593463	617.2991957943316	1318.3849518080685	3635.233352353337	599.8804772012821	1288.6080024837756	3619.1399026084273	524.6200023985317	1259.0440871710066	3718.149622622384	633.6173862321882	465.0282271917814	3515.935145836543	746.4483574696876	877.7046194274076	3549.461045913531	750.6243753545355	1229.619083096756	3597.3390926052493	733.9903832391608	1325.8440790155375	3562.409468481683	680.0962300564863	1278.350629356738	3465.284458731162	705.0453058206529	1271.2056695856625	3623.4739431312787	727.8175777168901	-122.37279373311794	3529.8187268486317	649.0478240841143	-381.74928596037523	3485.0689671041932	624.8914702363431	-235.03667307381963	3433.6920812039125	586.8413642983838	-44.85532310939287	3643.7035283696787	546.4736375906759	204.09820269031079	3762.886983250975	501.9019794342199	439.89752195685276	3661.047427232875	415.7167034332242	563.6441571861376	3567.54544835442	425.8589957120328	584.545825243235	3566.641390537963	396.31966862276124	581.7648191017187	3662.8176549016025	401.2146844691694	-22.44181362850783	3512.4023934417582	844.8623854842895	246.30489442782536	3444.0040383964383	852.1513955969095	491.4006745614547	3425.0794557761724	842.5913410728728	594.1503630571464	3429.098721808051	810.0802354674541	610.1127810484792	3420.5603516288406	823.6789266393231	596.9301007346007	3343.098594105571	820.2817811357111
642	10.7	454.1345637622202	3650.5372893463486	566.700031467685	833.3973256593663	3661.764006798829	545.0525986560539	1226.8801244529286	3721.7273084561593	620.5590987899136	1310.584436898286	3614.1514090632554	594.5053951551528	1274.8658896926768	3594.838601839148	518.6591770138946	1258.8506998661321	3717.7372295591395	633.4872672841219	460.18379948211043	3513.953810711941	745.0550281397716	871.0931824914542	3544.373382539767	748.8888474626634	1222.8563280446497	3593.072799691888	732.8540246345486	1326.1446293854103	3563.1485833098154	680.8472037340597	1280.1656784762035	3478.0151757097215	716.5197032039019	1264.626042232112	3619.542970354107	726.9306894627373	-122.39675216473542	3529.7608747103145	649.051191415749	-381.8636878998609	3485.2660468318595	625.0084665726656	-239.12217646281763	3429.9379108214694	585.2405098484433	-44.84124105202153	3643.9760873023824	546.5588215379122	208.51342298316774	3758.628073073554	499.83140516610587	440.08496814199816	3658.8804481172688	420.03078561931966	563.6419060925818	3566.4285801990923	425.52725480834715	581.3118408582076	3547.925980729241	392.1835446224861	582.27123869175	3664.3864509851132	401.8939374957038	-22.78737700552142	3491.2218825340196	838.1253790682349	246.24073516564155	3444.0047973582505	852.2230023326092	491.5020763601747	3425.499542806891	843.0257468545725	594.2992641759273	3429.3485891458804	810.2263622517478	610.2664271706451	3421.153705915871	823.9431104771611	600.543859387274	3355.3862400876246	832.7584123383882
643	10.716666666666667	456.0419430973751	3630.984853014103	562.4141893736618	855.4516918305294	3687.8161389249904	562.6744258348009	1233.684762125783	3726.1521143007926	621.8441048605223	1316.0296071960033	3616.171068665122	596.3631557731319	1287.9456509022104	3612.9672090440017	533.0234966923964	1267.6000757599395	3714.1402763868236	632.4266211239644	464.7005689173387	3515.290928771262	746.233964614669	877.0869616386966	3548.7730523266523	750.3954050151214	1222.8873772343497	3593.0633235948803	732.9859253348782	1325.4598176128513	3559.6096863378175	684.5015105893449	1280.2222530655706	3478.0739807173554	716.5445889396694	1264.6553382396173	3619.269918976507	726.8283022580916	-122.38876606733832	3529.5700007251226	648.965277411395	-381.8971007996014	3485.185946147235	624.9559387582464	-239.08999744105583	3429.8091022413037	585.1775046301408	-44.81973002534968	3643.6389965468707	546.447804963	204.40232364317697	3763.218007700746	502.09152321326445	440.15343229234526	3658.489948269199	420.0072777414154	563.78872731421	3565.979020793271	425.3144192421822	581.5939499113506	3547.523447688531	392.0079677717822	583.6141101045862	3649.5152515989275	399.07969231142135	-18.645696813472913	3487.0986193056297	835.8759423292876	246.23529005386578	3443.803347545058	852.0930530791632	491.52227517200174	3425.338777069524	842.91366685477	602.0724552700412	3449.873831971397	817.8946413830779	610.3697418787286	3420.817741950176	823.8932451982043	597.0264424483867	3342.9598006770175	820.4279239192946
644	10.733333333333333	452.86776997488994	3615.2671316274846	549.5623038684093	866.9834433366832	3695.244007883275	565.8902995452394	1248.9085906322546	3726.601608576128	621.6523781345691	1326.0618380572903	3626.3440421873165	606.5904014268942	1299.9223507705767	3619.4660423142745	536.0705163632922	1267.6585809775568	3714.1413541946818	632.4452889081463	464.7848487770245	3515.3327820616564	746.3029473288278	882.6748239865635	3551.3072036531735	751.8079128612678	1222.8821728309515	3592.588339053265	732.5803043401753	1326.0011106601662	3562.5259772663017	680.5804618319687	1285.4624708904369	3479.327790834754	717.928755875858	1264.162927401531	3616.675658512274	730.5830707468664	-122.45868264053655	3529.6720837557855	649.1068458188671	-381.8928632113909	3485.1243904810035	624.9684848814835	-239.08554905107087	3429.8145562965256	585.2475561586592	-44.82708536303543	3643.822413066061	546.5941197820174	204.4101493233554	3763.3051775909257	502.09680735680837	440.05764647289857	3658.382891508866	420.0747753955586	569.4438970374699	3570.393313073424	426.56836103956664	586.8735720274503	3551.6647874245295	393.21477941741176	587.3563475944287	3669.0084670706915	403.31732565362626	-22.771710940372945	3491.0953602583972	838.1590252791923	246.1828772832566	3443.722253141657	852.0176181779567	491.45457134619045	3425.2409875514913	842.8971000810217	598.4388947235798	3430.147834628556	811.4492567183416	610.2309622350299	3420.247986703255	823.984837859786	600.6002498615068	3353.620826699094	837.9648078868045
